<svg width="174" height="47" viewBox="0 0 174 47" fill="none" xmlns="http://www.w3.org/2000/svg">
<path d="M22.269 0.00013148C24.5957 0.00013148 26.3014 3.73396 28.4007 4.41261C30.5766 5.11613 34.1567 3.11775 35.9679 4.42986C37.7975 5.75518 36.9878 9.77072 38.3187 11.5914C39.6368 13.3944 43.7309 13.8614 44.4377 16.0273C45.1189 18.117 42.1048 20.8808 42.1048 23.197C42.1048 25.5131 45.1189 28.2769 44.4372 30.3667C43.7309 32.5325 39.6368 32.9995 38.3181 34.8025C36.9867 36.6232 37.797 40.6398 35.9674 41.9641C34.1562 43.2762 30.576 41.2778 28.4002 41.9813C26.3014 42.66 24.5957 46.3938 22.269 46.3938C19.9422 46.3938 18.2365 42.66 16.1372 41.9813C13.9614 41.2778 10.3812 43.2762 8.56999 41.9641C6.7404 40.6387 7.55016 36.6232 6.21927 34.8025C4.90113 32.9995 0.806992 32.5325 0.100245 30.3667C-0.581007 28.2769 2.43312 25.5131 2.43312 23.197C2.43312 20.8808 -0.581006 18.117 0.100755 16.0273C0.806993 13.8614 4.90113 13.3944 6.21978 11.5914C7.55118 9.77072 6.74092 5.75417 8.5705 4.42986C10.3817 3.11775 13.9619 5.11613 16.1377 4.41261C18.2365 3.73396 19.9422 0.00013148 22.269 0.00013148Z" fill="url(#paint0_linear_119_113)"/>
<path d="M21.8848 12.255L15.6083 24.1807C15.5395 24.3116 15.5053 24.4583 15.5091 24.6065C15.5128 24.7547 15.5544 24.8994 15.6298 25.0266C15.7052 25.1538 15.8118 25.2591 15.9393 25.3325C16.0668 25.4058 16.2109 25.4446 16.3577 25.4451H19.6569C19.7687 25.445 19.8795 25.4672 19.9828 25.5104C20.0862 25.5536 20.1801 25.617 20.2592 25.6969C20.3383 25.7768 20.4011 25.8716 20.4439 25.976C20.4867 26.0804 20.5088 26.1923 20.5088 26.3053V33.4696C20.5088 34.3555 21.674 34.6634 22.1028 33.8903L28.6557 22.0788C28.7282 21.9479 28.7655 21.8002 28.7641 21.6502C28.7626 21.5002 28.7224 21.3533 28.6474 21.2238C28.5724 21.0944 28.4653 20.987 28.3365 20.9123C28.2078 20.8376 28.062 20.7982 27.9136 20.798L24.3369 20.7941C24.1113 20.7937 23.8951 20.7029 23.7357 20.5417C23.5762 20.3804 23.4866 20.1618 23.4865 19.9339V12.6592C23.4879 11.7627 22.3011 11.464 21.8848 12.255Z" fill="white"/>
<path d="M61.4596 15.158C61.4596 13.6592 62.3675 12.6146 63.5932 12.6146C64.4558 12.6146 65.3183 12.9325 65.7722 13.3867L67.3157 8.79955C65.9084 7.48244 63.5932 6.5741 61.5958 6.5741C57.1924 6.5741 54.1055 9.7079 54.1055 14.1134V15.7938H51.0186V21.9252H54.1055V39.2747H61.4596V21.9252H66.317V15.7938H61.4596V15.158Z" fill="#0D0543"/>
<path d="M84.2789 15.7938V29.4645L84.2335 29.3282C84.2335 31.6445 82.4631 33.4158 80.1025 33.4158C77.7419 33.4158 76.1076 31.5991 76.1076 29.0103V15.7938H68.7535V30.7362C68.7535 36.05 72.3398 39.8197 77.3787 39.8197C80.3294 39.8197 82.8262 38.5934 84.2789 36.595V39.2747H91.9508V15.7938H84.2789Z" fill="#0D0543"/>
<path d="M106.936 33.5975C104.439 33.5975 102.578 32.0079 101.851 29.6462H118.602C118.602 20.6989 114.244 15.2488 106.8 15.2488C99.7178 15.2488 94.5426 20.3356 94.5426 27.4661C94.5426 34.6875 99.8994 39.8197 107.163 39.8197C110.658 39.8197 114.698 38.3209 116.787 36.1863L112.247 31.5991C110.84 32.8254 108.752 33.5975 106.936 33.5975ZM106.936 21.4256C109.251 21.4256 110.84 22.8335 111.475 24.9682H101.942C102.759 22.7881 104.621 21.4256 106.936 21.4256Z" fill="#0D0543"/>
<path d="M121.317 39.2747H129.034V7.52786H121.317V39.2747Z" fill="#0D0543"/>
<path d="M144.155 33.5975C141.658 33.5975 139.797 32.0079 139.071 29.6462H155.822C155.822 20.6989 151.464 15.2488 144.019 15.2488C136.937 15.2488 131.762 20.3356 131.762 27.4661C131.762 34.6875 137.119 39.8197 144.382 39.8197C147.878 39.8197 151.918 38.3209 154.006 36.1863L149.466 31.5991C148.059 32.8254 145.971 33.5975 144.155 33.5975ZM144.155 21.4256C146.47 21.4256 148.059 22.8335 148.695 24.9682H139.162C139.979 22.7881 141.84 21.4256 144.155 21.4256Z" fill="#0D0543"/>
<path d="M166.118 20.1539V15.7938H158.446V39.2747H166.118V28.6016L166.163 28.6924C166.163 24.3777 169.068 21.6527 173.835 21.6527V15.2488C170.43 15.2488 167.661 17.1109 166.118 20.1539Z" fill="#0D0543"/>
<defs>
<linearGradient id="paint0_linear_119_113" x1="4.37426" y1="6.49525" x2="44.5413" y2="46.3904" gradientUnits="userSpaceOnUse">
<stop stop-color="#00FBFF"/>
<stop offset="1" stop-color="#09C9E3"/>
</linearGradient>
</defs>
</svg>
